<?xml version="1.0" encoding="UTF-8" standalone="no"?>
<svg
   xmlns:dc="http://purl.org/dc/elements/1.1/"
   xmlns:cc="http://creativecommons.org/ns#"
   xmlns:rdf="http://www.w3.org/1999/02/22-rdf-syntax-ns#"
   xmlns:svg="http://www.w3.org/2000/svg"
   xmlns="http://www.w3.org/2000/svg"
   xmlns:sodipodi="http://sodipodi.sourceforge.net/DTD/sodipodi-0.dtd"
   xmlns:inkscape="http://www.inkscape.org/namespaces/inkscape"
   enable-background="new 0 0 256 256"
   height="512"
   viewBox="0 0 256 256"
   width="512"
   version="1.1"
   id="svg50"
   sodipodi:docname="logo.svg"
   inkscape:version="1.0.1 (1.0.1+r74)">
  <metadata
     id="metadata56">
    <rdf:RDF>
      <cc:Work
         rdf:about="">
        <dc:format>image/svg+xml</dc:format>
        <dc:type
           rdf:resource="http://purl.org/dc/dcmitype/StillImage" />
        <dc:title></dc:title>
      </cc:Work>
    </rdf:RDF>
  </metadata>
  <defs
     id="defs54" />
  <sodipodi:namedview
     pagecolor="#ffffff"
     bordercolor="#666666"
     borderopacity="1"
     objecttolerance="10"
     gridtolerance="10"
     guidetolerance="10"
     inkscape:pageopacity="0"
     inkscape:pageshadow="2"
     inkscape:window-width="1576"
     inkscape:window-height="1216"
     id="namedview52"
     showgrid="false"
     inkscape:zoom="0.4609375"
     inkscape:cx="345.5143"
     inkscape:cy="370.73676"
     inkscape:window-x="915"
     inkscape:window-y="27"
     inkscape:window-maximized="0"
     inkscape:current-layer="svg50"
     inkscape:document-rotation="0" />
  <g
     id="g4"
     transform="matrix(0.13778221,0,0,0.13778221,132.67067,162.00151)"
     style="fill:#808080">
    <path
       d="M 429.697,422 V 233.698 C 429.697,151.833 372.766,83.025 296.419,64.759 299.349,58.79 301,52.085 301,45 301,20.187 280.813,0 256,0 c -24.813,0 -45,20.187 -45,45 0,7.085 1.651,13.79 4.581,19.759 C 139.234,83.025 82.303,151.833 82.303,233.698 V 422 H 44.867 v 90 h 422.266 v -90 z m -95.03,0 v -60 h 65.03 v 60 z m 65.03,-188.302 V 332 h -65.03 v -98.302 c 0,-5.036 -0.095,-10.039 -0.275,-15 h 64.524 c 0.514,4.931 0.781,9.935 0.781,15 z m -7.224,-45.001 h -60.299 c -3.077,-27.148 -8.939,-52.128 -17.233,-72.801 -2.375,-5.918 -4.926,-11.391 -7.633,-16.42 40.108,15.384 71.62,48.248 85.165,89.221 z M 256,30 c 8.271,0 15,6.729 15,15 0,8.271 -6.729,15 -15,15 -8.271,0 -15,-6.729 -15,-15 0,-8.271 6.729,-15 15,-15 z m 0,60 c 7.845,0 20.134,9.737 31.098,37.066 6.99,17.423 12.035,38.517 14.88,61.631 H 210.024 C 217.629,127.295 239.805,90 256,90 Z m -48.667,143.698 c 0,-5.111 0.102,-10.11 0.29,-15 h 96.755 c 0.191,4.95 0.289,9.955 0.289,15 V 332 H 207.333 Z M 304.667,362 v 60 H 207.333 V 362 Z M 204.692,99.477 c -2.706,5.029 -5.258,10.501 -7.633,16.42 -8.294,20.673 -14.156,45.653 -17.233,72.801 h -60.299 c 13.545,-40.974 45.058,-73.838 85.165,-89.221 z m -92.389,134.221 c 0,-5.065 0.267,-10.069 0.781,-15 h 64.524 c -0.18,4.962 -0.275,9.964 -0.275,15 V 332 h -65.03 z m 0,128.302 h 65.03 v 60 h -65.03 z m 324.83,120 H 74.867 v -30 h 362.266 z"
       id="path2"
       style="fill:#808080" />
  </g>
  <path
     d="M 129.50596,175.29923 C 97.373863,170.33412 68.482461,155.85904 66.864144,131.12075 64.949585,101.85149 85.542116,93.766442 97.058851,91.585837 c 3.042399,-0.576164 6.167229,0.363162 8.424539,2.542952 -1.57016,-4.978181 -2.68575,-10.439488 -3.15501,-16.419017 C 98.909754,34.127843 89.509971,25.581695 74.127391,25.581695 c -10.963423,0 -15.846936,5.641666 -17.749254,8.884012 1.732571,0.945038 2.715965,3.34599 3.2146,5.057341 0.115069,0.394174 0.05386,0.804669 -0.119151,1.148246 l 0.478232,0.299506 c 0.735302,0.459462 0.931165,1.444489 0.426818,2.150412 l -2.996701,4.195546 c -0.107725,0.15016 -0.241564,0.277472 -0.393358,0.377851 3.336197,1.045417 11.888058,5.05326 5.602493,17.625207 0,0 -18.54005,42.569974 -11.536321,67.083824 8.276021,28.9673 25.958357,39.12279 36.072224,42.63037 5.789379,2.00841 10.383178,6.52467 12.294473,12.3467 2.656384,8.09403 4.033144,16.86134 4.464044,19.93639 0.0857,0.6137 0.68388,1.00951 1.28452,0.85934 l 1.57262,-0.39336 c 0.42763,-0.10691 0.87648,0.0661 1.12049,0.43335 l 2.2361,3.35333 c 0.38684,0.58025 1.22252,0.62513 1.66891,0.089 l 2.48421,-2.98119 c 0.44639,-0.53536 1.28208,-0.4913 1.66891,0.089 l 1.92434,2.88571 c 0.40968,0.61452 1.30168,0.61778 1.72686,0.0139 1.18416,-1.68035 3.41209,-5.97545 6.68382,-16.88093 2.5454,-8.48576 7.61825,-12.33447 12.08229,-14.06132 -3.24071,-1.82479 -6.17702,-3.65039 -8.8326,-5.42459 z"
     fill="#46baf9"
     id="path2-3"
     style="stroke-width:0.816095" />
  <path
     d="m 175.93933,175.88111 c -14.39918,2.00188 -30.79372,1.83948 -46.42602,-0.57616 10.6737,7.12695 26.01793,15.12632 46.30768,20.33627 56.47379,14.49956 38.65843,4.46323 0.11834,-19.76011 z"
     fill="#a8aeb2"
     id="path4"
     style="stroke-width:0.816095" />
  <path
     d="m 192.65785,172.26745 c -5.09978,1.57588 -10.74225,2.78287 -16.7324,3.6153 0.005,-8.2e-4 0.01,-0.002 0.0147,-0.002 6.8046,4.27634 12.95796,8.10872 18.17525,11.4441 32.55648,7.47707 23.77367,0.85609 -1.45754,-15.05776 z"
     fill="#52565b"
     id="path6"
     style="stroke-width:0.816095" />
  <path
     d="m 105.17001,208.17644 c -0.60064,0.15017 -1.19884,-0.24564 -1.28452,-0.85934 -0.43172,-3.07505 -1.80766,-11.84236 -4.464044,-19.93639 -1.911295,-5.82203 -6.505094,-10.33911 -12.294473,-12.3467 -2.694746,-0.93443 -5.926483,-2.34301 -9.374485,-4.45344 2.623746,2.26385 5.5217,14.84641 6.629957,18.22422 2.65639,8.09403 2.835115,15.43807 3.266013,18.51313 0.08569,0.61369 0.683887,1.0095 1.284534,0.85934 l 1.572615,-0.39336 c 0.427634,-0.10691 0.876486,0.0661 1.120498,0.43335 l 2.236101,3.35333 c 0.386829,0.58025 1.22251,0.62513 1.668914,0.089 l 2.484194,-2.9812 c 0.446404,-0.53536 1.282086,-0.49129 1.668915,0.0889 l 1.924351,2.88572 c 0.40968,0.61452 1.30167,0.61778 1.72686,0.0139 0.47089,-0.66838 1.10989,-1.76195 1.9121,-3.51002 z"
     fill="#46baf9"
     id="path8"
     style="stroke-width:0.816095" />
  <path
     d="M 196.55797,164.43456 C 177.30465,154.75894 124.07566,126.03728 107.26003,96.418751 105.11616,92.64268 101.01528,90.837477 97.058034,91.586653 85.5413,93.767259 64.948768,101.85149 66.863328,131.12156 c 2.810632,42.96577 87.886902,54.98767 129.332292,39.96663 2.98609,-1.08214 3.19991,-5.22791 0.36235,-6.65363 z"
     fill="#7ed5fc"
     id="path10"
     style="stroke-width:0.816095" />
  <path
     d="m 196.55797,164.43456 c -5.27851,-2.65231 -13.11383,-6.73931 -22.05008,-11.88152 -0.34438,0.74346 -0.94748,1.38491 -1.82233,1.76439 -22.70622,9.83804 -59.6541,12.00884 -88.66138,4.4673 27.59462,19.76746 81.6854,23.35257 112.17144,12.30346 2.98609,-1.08214 3.19991,-5.22791 0.36235,-6.65363 z"
     fill="#52565b"
     id="path12"
     style="stroke-width:0.816095" />
  <path
     d="m 59.951818,40.9708 -0.479047,-0.299506 c -0.259519,0.514956 -0.77774,0.87567 -1.384914,0.772842 -2.552746,-0.431714 -4.145763,-1.216798 -5.132422,-2.080227 -0.27584,-0.241564 -0.488025,-0.514139 -0.645532,-0.804669 -2.832666,1.512224 -7.861444,4.860662 -11.449814,10.971582 -0.385197,0.656141 0.193414,1.465707 0.940141,1.316362 l 14.652172,-2.930598 c 0.374588,-0.07508 0.706739,-0.289714 0.929533,-0.600646 l 2.996701,-4.195545 c 0.504347,-0.705106 0.3093,-1.690133 -0.426818,-2.149595 z"
     fill="#f9bd55"
     id="path14"
     style="stroke-width:0.816095" />
  <path
     d="m 55.192352,34.079694 c -2.82369,-0.328071 -4.374271,3.412093 -2.235285,5.285031 0.986659,0.863429 2.578861,1.647697 5.132422,2.080227 1.012774,0.17138 1.791329,-0.935245 1.504063,-1.921088 -0.603094,-2.070433 -1.911294,-5.154456 -4.4012,-5.44417 z"
     fill="#e3e4e5"
     id="path16"
     style="stroke-width:0.816095" />
  <g
     fill="#f98080"
     id="g24"
     transform="matrix(0.81609513,0,0,0.81609513,23.521331,23.541457)">
    <path
       d="m 111.358,242.67 c -1.614,-0.188 -2.528,-1.932 -1.74,-3.352 1.6,-2.881 3.705,-7.067 4.701,-10.707 l -1.097,-1.645 c -0.474,-0.711 -1.498,-0.766 -2.045,-0.109 l -3.044,3.653 c -0.547,0.656 -1.571,0.602 -2.045,-0.109 l -2.74,-4.109 c -0.3,-0.449 -0.849,-0.662 -1.373,-0.531 l -0.692,0.173 c -0.047,2.92 -0.695,12.167 -6.811,17.41 -4.889,4.19 -14.666,0.235 -22.812,0.24 -2.162,0.001 -3.89,1.812 -3.89,3.974 0,2.215 1.811,3.974 4.027,3.97 1.526,-0.003 3.036,0.191 4.351,0.717 4.799,1.92 20.597,1.64 25.617,-0.84 1.37,-0.677 2.873,-1.023 4.394,-1.168 3.003,-0.287 7.532,-0.442 11.347,0.58 1.819,0.487 3.213,-1.664 2.067,-3.158 -1.797,-2.339 -4.454,-4.551 -8.215,-4.989 z"
       id="path18" />
    <path
       d="m 94.353,243.427 c -0.884,-0.363 -1.84,-0.635 -2.89,-0.757 -1.614,-0.188 -2.528,-1.932 -1.74,-3.352 1.6,-2.881 3.705,-7.067 4.701,-10.707 l -1.097,-1.645 c -0.474,-0.711 -1.498,-0.766 -2.045,-0.109 l -3.044,3.653 c -0.547,0.656 -1.571,0.602 -2.045,-0.109 l -2.74,-4.109 c -0.3,-0.449 -0.849,-0.662 -1.373,-0.531 l -0.692,0.173 c -0.047,2.92 -0.695,12.167 -6.811,17.41 -0.153,0.132 -0.325,0.232 -0.488,0.348 7.517,0.583 15.823,3.374 20.264,-0.265 z"
       id="path20" />
    <path
       d="m 76.147,252.244 c -1.315,-0.526 -2.825,-0.72 -4.351,-0.717 -2.215,0.004 -4.027,-1.755 -4.027,-3.97 0,-0.854 0.277,-1.647 0.736,-2.301 -4.984,0.125 -11.234,-1.676 -16.742,-1.673 -2.162,0.001 -3.89,1.812 -3.89,3.974 0,2.215 1.811,3.974 4.027,3.97 1.526,-0.003 3.036,0.191 4.351,0.717 3.8,1.52 14.492,1.659 21.273,0.421 -0.522,-0.127 -0.989,-0.266 -1.377,-0.421 z"
       id="path22" />
  </g>
  <path
     d="m 58.291881,43.501512 c -0.180357,0 -0.362346,-0.01551 -0.544336,-0.0457 -2.644964,-0.44722 -4.709684,-1.307383 -6.136219,-2.55601 -1.659121,-1.452649 -2.15694,-3.820141 -1.238016,-5.89139 0.907497,-2.04595 2.892241,-3.203173 5.052444,-2.955081 2.78615,0.32399 4.903916,2.710252 6.123978,6.900085 0.343577,1.182521 0.0457,2.492354 -0.779371,3.417806 -0.646347,0.727956 -1.544867,1.130292 -2.47848,1.130292 z M 54.85612,36.100345 c -0.433347,0 -0.654508,0.345208 -0.750807,0.56229 -0.07508,0.168115 -0.281553,0.749175 0.195863,1.167015 0.666749,0.584325 1.708903,1.054396 3.046483,1.38165 -0.665934,-1.841927 -1.549765,-3.007311 -2.391159,-3.105243 -0.03509,-0.004 -0.06855,-0.0057 -0.10038,-0.0057 z"
     id="path26"
     style="stroke-width:0.816095" />
  <path
     d="m 41.629666,52.904559 c -0.934428,0 -1.830501,-0.450484 -2.386262,-1.231487 -0.667565,-0.937693 -0.723876,-2.184687 -0.142,-3.175426 3.868291,-6.588336 9.334496,-10.182419 12.247956,-11.738712 0.987474,-0.52883 2.216514,-0.159955 2.752689,0.823439 0.0506,0.09222 0.115069,0.172197 0.19831,0.245646 0.761417,0.666749 2.00841,1.184969 3.626728,1.510592 0.259517,-0.301956 0.604726,-0.523933 0.995635,-0.632474 0.55168,-0.154242 1.14335,-0.06937 1.630558,0.233403 l 0.479048,0.298691 c 8.16e-4,0 8.16e-4,8.16e-4 0.0016,8.16e-4 0.825887,0.516588 1.408579,1.360431 1.597913,2.316078 0.189334,0.954831 -0.02611,1.957812 -0.592484,2.750241 l -2.996702,4.19636 c -0.526381,0.736118 -1.30412,1.238833 -2.189583,1.415109 L 42.2009,52.847433 c -0.190151,0.03917 -0.381933,0.05712 -0.571267,0.05712 z M 51.906752,41.143813 c -2.206721,1.357982 -5.219744,3.650393 -7.799421,7.161234 l 11.737897,-2.347089 1.800306,-2.520101 c -2.420539,-0.421106 -4.348156,-1.192315 -5.738782,-2.294044 z"
     id="path28"
     style="stroke-width:0.816095" />
  <path
     d="m 70.5431,42.020299 c -1.123762,0 -2.036972,-0.90913 -2.040237,-2.033709 -0.01142,-3.510842 2.836747,-6.376967 6.347588,-6.389209 1.721148,0.0024 3.30274,0.65206 4.509744,1.850904 1.207005,1.198844 1.873755,2.795942 1.879468,4.4975 0.0033,1.126211 -0.906682,2.042687 -2.03371,2.046766 -0.0016,0 -0.004,0 -0.0065,0 -1.123764,0 -2.036974,-0.90913 -2.040238,-2.033708 -0.0016,-0.611256 -0.241564,-1.184971 -0.675727,-1.615052 -0.434162,-0.430083 -0.985843,-0.68552 -1.619952,-0.665118 -1.260867,0.004 -2.28425,1.033992 -2.28017,2.295676 0.0033,1.126211 -0.906682,2.042685 -2.033708,2.046766 -0.0016,-8.16e-4 -0.004,-8.16e-4 -0.0066,-8.16e-4 z"
     id="path30"
     style="stroke-width:0.816095" />
  <path
     d="m 94.543645,232.45527 c -3.978464,0 -7.718628,-0.39744 -9.637267,-1.16457 -0.735301,-0.29379 -1.648512,-0.44313 -2.788597,-0.43987 -0.0033,0 -0.0073,0 -0.01061,0 -1.428982,0 -2.769826,-0.55249 -3.775256,-1.55629 -0.995636,-0.99401 -1.544868,-2.31689 -1.544868,-3.72384 0,-2.91183 2.338928,-5.28177 5.214032,-5.2834 h 0.01387 c 2.369941,0 4.826387,0.37296 7.201224,0.73203 4.180039,0.63411 8.127492,1.2323 10.07551,-0.43661 4.366927,-3.74261 4.813317,-10.66065 4.845977,-12.69191 0.0146,-0.92382 0.64798,-1.72196 1.54486,-1.94639 l 0.56472,-0.14119 c 1.26087,-0.31501 2.59275,0.19996 3.31418,1.28128 l 1.49508,2.24263 1.62975,-1.95536 c 0.62023,-0.74347 1.57506,-1.1556 2.53234,-1.10499 0.96626,0.0514 1.86396,0.56228 2.40095,1.36777 l 0.89525,1.34411 c 0.32726,0.49128 0.42601,1.1001 0.27013,1.66973 -0.83977,3.06851 -2.54704,6.51243 -3.88379,8.94276 3.02443,0.42601 5.72327,2.08839 7.82062,4.82149 0.97279,1.2674 1.0242,2.94938 0.1314,4.28614 -0.88302,1.32207 -2.43931,1.91374 -3.9646,1.50325 -2.79348,-0.74836 -6.18436,-0.63737 -8.53798,-0.41295 -1.1311,0.10772 -2.07206,0.35337 -2.87592,0.75081 -2.6221,1.29514 -7.962621,1.91537 -12.931008,1.91537 z m -12.398117,-5.68492 c 1.62403,0 3.062806,0.24565 4.276339,0.73123 3.336197,1.33431 15.593953,1.18252 19.244323,-0.62024 1.25679,-0.62105 2.66211,-0.9989 4.29674,-1.15477 2.36179,-0.22524 5.67024,-0.34195 8.7314,0.24728 -1.31962,-1.37431 -2.83918,-2.16755 -4.52932,-2.36423 -1.30167,-0.1518 -2.43441,-0.93524 -3.03017,-2.09655 -0.59166,-1.15396 -0.56799,-2.5201 0.0628,-3.6561 0.85772,-1.54488 1.90396,-3.57124 2.72168,-5.59271 l -0.5835,0.70021 c -0.61942,0.74429 -1.56528,1.15886 -2.53316,1.105 -0.96707,-0.0514 -1.86396,-0.56392 -2.40096,-1.36942 l -0.52801,-0.79324 c -0.58024,3.6806 -2.09084,8.48577 -5.92565,11.773 -3.367212,2.88652 -8.438428,2.11695 -13.343159,1.37348 -2.229572,-0.33786 -4.535857,-0.70511 -6.600578,-0.68634 -0.615335,0 -1.135188,0.55086 -1.135188,1.20293 0,0.31583 0.123231,0.61289 0.346841,0.83568 0.235035,0.23504 0.55168,0.36398 0.891991,0.36398 0.01306,-0.002 0.02448,8.2e-4 0.03754,8.2e-4 z m 37.338792,0.1265 h 0.008 z m -4.84842,-7.33996 h 8.2e-4 c 0,8.1e-4 0,0 -8.2e-4,0 z"
     id="path32"
     style="stroke-width:0.816095" />
  <path
     d="m 118.70984,214.15679 c -0.0131,0 -0.027,0 -0.04,0 -1.01523,-0.0131 -1.95781,-0.52638 -2.52173,-1.37186 l -1.18334,-1.77501 -1.62974,1.95537 c -0.61941,0.74347 -1.56935,1.15396 -2.53316,1.10499 -0.96708,-0.0514 -1.86396,-0.56392 -2.40095,-1.36941 l -1.84519,-2.76819 -0.89117,0.22279 c -0.84873,0.2122 -1.75134,0.0538 -2.47522,-0.43333 -0.72061,-0.48639 -1.20373,-1.25923 -1.32452,-2.12104 -0.45946,-3.27336 -1.80601,-11.733 -4.383242,-19.58383 -1.677076,-5.11038 -5.798356,-9.2431 -11.023814,-11.05563 -10.278718,-3.56553 -28.801632,-14.02216 -37.365735,-43.99734 -3.008942,-10.53088 -1.953731,-25.27936 3.136254,-43.83491 3.754854,-13.68918 8.444953,-24.516313 8.492286,-24.624038 0.01469,-0.03346 0.02938,-0.0661 0.0457,-0.09793 2.064721,-4.129442 2.56009,-7.520318 1.472236,-10.080408 -1.215133,-2.858782 -4.193065,-4.162902 -5.860347,-4.685202 -0.750808,-0.235852 -1.300039,-0.8822 -1.410213,-1.661571 -0.105275,-0.745094 0.208104,-1.485292 0.810383,-1.927616 l 2.609056,-3.652842 c -0.841415,-0.528829 -1.172749,-1.580776 -0.807954,-2.487458 -0.565555,-1.856616 -1.374305,-3.216231 -2.178158,-3.65529 -0.484761,-0.264414 -0.841394,-0.714083 -0.989108,-1.246177 -0.147713,-0.532094 -0.07263,-1.101729 0.206473,-1.577512 2.167548,-3.694462 7.583972,-9.891889 19.508754,-9.891889 19.195376,0 27.107419,14.133135 30.234689,54.009992 0.43254,5.513538 1.46407,10.88426 3.06688,15.964452 0.28074,0.89036 -0.0783,1.857433 -0.87159,2.347906 -0.79406,0.492106 -1.81907,0.381116 -2.49071,-0.266863 -1.76848,-1.707271 -4.246143,-2.458895 -6.628325,-2.005962 -11.431045,2.164284 -30.337524,9.900868 -28.53885,37.396738 1.360431,20.79981 24.133568,36.61084 60.918225,42.29576 0.29379,0.0456 0.57453,0.15424 0.82099,0.31991 2.81308,1.87866 5.74041,3.67651 8.70121,5.34462 0.68797,0.38764 1.0903,1.13681 1.03399,1.92435 -0.0571,0.78752 -0.56229,1.47141 -1.29923,1.75623 -5.28502,2.04513 -8.94031,6.33289 -10.86385,12.74496 -2.58947,8.63266 -4.9994,14.67339 -6.96945,17.46933 -0.5827,0.82508 -1.5261,1.31392 -2.53153,1.31391 z m -11.71749,-8.44495 c 1.01522,0 1.98964,0.50352 2.56907,1.37267 l 1.49508,2.24263 1.62974,-1.95536 c 0.62024,-0.74347 1.57507,-1.1556 2.53235,-1.10499 0.96626,0.0514 1.86396,0.56228 2.40095,1.36777 l 1.06092,1.59138 c 1.15804,-2.11041 3.03506,-6.40063 5.62207,-15.02593 2.15695,-7.19061 6.05217,-11.27926 9.75806,-13.60349 -1.79949,-1.07888 -3.57531,-2.19938 -5.31115,-3.35008 C 90.202835,171.18612 66.318176,154.01139 64.828803,131.25377 62.749392,99.479109 86.409625,91.526261 96.678551,89.581507 c 1.854984,-0.350921 3.745059,-0.232587 5.511089,0.306035 -0.93851,-3.89767 -1.57425,-7.921835 -1.89497,-12.017817 -3.639786,-46.4048 -14.454679,-50.247792 -26.167279,-50.247792 -8.430263,0 -12.85105,3.584289 -15.04145,6.463473 1.25189,1.419189 2.014939,3.318243 2.465424,4.867191 0.07753,0.26768 0.12323,0.541072 0.136287,0.815279 0.4766,0.488842 0.80875,1.110705 0.943407,1.788065 0.189333,0.954831 -0.02611,1.957812 -0.592486,2.75024 L 60.237451,46.8271 c 2.117767,1.08867 4.485259,2.914275 5.755104,5.902816 1.571798,3.698542 1.049497,8.222974 -1.551398,13.448431 -0.692864,1.61342 -18.046311,42.490803 -11.426147,65.662193 8.058123,28.20098 25.24917,37.95821 34.779529,41.2634 6.421852,2.22713 11.492251,7.32609 13.564311,13.63777 2.42462,7.38647 3.79565,15.25118 4.38651,19.18476 l 0.50189,-0.12568 c 0.24728,-0.0588 0.49782,-0.0889 0.7451,-0.0889 z"
     id="path34"
     style="stroke-width:0.816095" />
  <path
     d="m 208.93814,204.4118 c -4.59707,0 -13.92177,-1.73583 -33.62394,-6.79481 -17.31346,-4.44527 -33.10408,-11.38126 -46.93363,-20.61538 -0.7957,-0.53127 -1.1156,-1.54487 -0.76877,-2.43605 0.34767,-0.89198 1.27066,-1.42245 2.21326,-1.27636 15.25527,2.35769 31.5331,2.5609 45.83353,0.57209 0.47497,-0.0677 0.95973,0.0376 1.36696,0.29297 l 5.76734,3.61939 c 27.25187,17.08494 32.45202,20.76146 30.83208,24.53344 -0.51822,1.20619 -1.38002,2.10472 -4.68683,2.10471 z m -70.40943,-25.92163 c 11.46695,6.57691 24.14254,11.66852 37.79989,15.17447 21.10585,5.41888 29.59488,6.74911 32.68951,6.70178 -3.33783,-3.43005 -16.05177,-11.40086 -28.39277,-19.13662 l -5.14384,-3.22766 c -11.60162,1.5465 -24.41839,1.70237 -36.95279,0.48803 z"
     id="path36"
     style="stroke-width:0.816095" />
  <path
     d="m 212.18782,192.42009 c -3.36313,0 -8.98684,-0.91566 -18.53025,-3.10687 -0.22769,-0.0522 -0.44478,-0.14363 -0.64227,-0.26931 -3.70507,-2.36831 -7.94795,-5.02878 -12.44055,-7.84592 l -5.5625,-3.49046 c -0.5721,-0.28726 -1.00054,-0.8373 -1.10419,-1.51712 -0.16892,-1.10335 0.58025,-2.13736 1.68116,-2.32015 0.0171,-0.003 0.0359,-0.006 0.0547,-0.008 0.0147,-0.002 0.0286,-0.004 0.0425,-0.006 0.0302,-0.005 0.0604,-0.009 0.0898,-0.0131 5.91015,-0.82752 11.38697,-2.01331 16.27864,-3.52553 0.56883,-0.17628 1.18661,-0.0947 1.69095,0.2236 20.77207,13.1016 24.69178,16.42637 23.30197,19.76747 -0.54434,1.30901 -1.71054,2.11123 -4.85985,2.11123 z m -17.27265,-7.00454 c 10.81571,2.47195 15.48051,2.9967 17.48403,2.96324 -3.12157,-3.16317 -13.91117,-10.02002 -20.04249,-13.88912 -3.35007,0.99564 -6.94496,1.84682 -10.74226,2.54377 l 1.12703,0.70674 c 4.38161,2.74698 8.52574,5.34542 12.17369,7.67537 z"
     id="path38"
     style="stroke-width:0.816095" />
  <path
     d="m 102.47365,214.15679 c -0.0131,0 -0.0261,0 -0.0392,0 -1.01523,-0.0131 -1.95782,-0.52638 -2.522558,-1.37186 l -1.183338,-1.77501 -1.629741,1.95537 c -0.619417,0.74428 -1.560374,1.15885 -2.53316,1.10499 -0.966257,-0.0514 -1.863961,-0.56392 -2.400136,-1.36941 l -1.845191,-2.76819 -0.891176,0.22279 c -0.848739,0.2122 -1.75134,0.0531 -2.475216,-0.43416 -0.720612,-0.48557 -1.203741,-1.25841 -1.324522,-2.12102 -0.09875,-0.7043 -0.182806,-1.5922 -0.279921,-2.62048 -0.353369,-3.7418 -0.887912,-9.39652 -2.904483,-15.54008 -0.266862,-0.81366 -0.606358,-2.03943 -1.036441,-3.59165 -1.025831,-3.70426 -3.428416,-12.37852 -4.987973,-13.72426 -0.804669,-0.69369 -0.941774,-1.88927 -0.315012,-2.74779 0.625944,-0.85854 1.805201,-1.09195 2.7127,-0.537 2.879999,1.76358 5.901184,3.19829 8.977863,4.26572 6.421852,2.22713 11.492251,7.32609 13.564315,13.63777 2.4793,7.55214 3.85685,15.60456 4.42404,19.44428 0.39662,0.10772 0.75978,0.33542 1.03236,0.66431 0.5019,0.60309 0.61289,1.44122 0.28563,2.15449 -0.74672,1.62892 -1.45264,2.91917 -2.09898,3.83564 -0.58106,0.82589 -1.52447,1.31555 -2.52989,1.31555 z m -11.719134,-8.44495 c 1.015222,0 1.98964,0.50271 2.569067,1.37185 l 1.495903,2.24345 1.629741,-1.95536 c 0.620233,-0.74347 1.566903,-1.1556 2.53316,-1.10499 0.966257,0.0514 1.863963,0.5631 2.400143,1.36858 l 1.05846,1.58813 c 0.0228,-0.0416 0.0456,-0.0849 0.0686,-0.12813 -0.34112,-0.42682 -0.56718,-0.94259 -0.64471,-1.49427 -0.45946,-3.27336 -1.80602,-11.733 -4.383245,-19.58384 -1.677076,-5.11038 -5.798356,-9.2431 -11.023813,-11.05563 -1.331867,-0.46192 -2.653941,-0.98667 -3.959693,-1.57181 0.95075,2.65966 1.877018,5.89221 2.840827,9.37041 0.39907,1.44204 0.744279,2.68658 0.980946,3.40883 2.158572,6.57691 2.741263,12.74333 3.089736,16.42799 0.04488,0.47742 0.08732,0.923 0.128127,1.32534 l 0.471703,-0.11834 c 0.248093,-0.062 0.497818,-0.0922 0.745095,-0.0922 z"
     id="path40"
     style="stroke-width:0.816095" />
  <path
     d="m 95.220188,225.73473 c -2.127559,0 -4.397936,-0.34194 -6.632405,-0.67899 -1.583224,-0.2383 -3.221127,-0.48558 -4.761915,-0.60554 -0.8569,-0.0669 -1.57996,-0.66268 -1.808467,-1.49019 -0.228506,-0.82834 0.08487,-1.71054 0.7859,-2.20836 l 0.269312,-0.18362 c 4.350602,-3.72874 4.796191,-10.64596 4.828834,-12.67722 0.01469,-0.92382 0.64798,-1.72196 1.544869,-1.94639 l 0.564737,-0.14119 c 1.260051,-0.31337 2.591919,0.19914 3.313347,1.27964 l 1.495902,2.24345 1.629742,-1.95536 c 0.620232,-0.74347 1.566903,-1.1556 2.533159,-1.10499 0.966256,0.0514 1.863967,0.5631 2.400137,1.36859 l 0.89526,1.34329 c 0.32725,0.49129 0.42599,1.10092 0.27012,1.66973 -0.83894,3.0677 -2.54703,6.51162 -3.883794,8.94277 0.896072,0.1265 1.760314,0.36397 2.634354,0.72306 0.6643,0.27339 1.136,0.87567 1.2421,1.58568 0.10609,0.70999 -0.16975,1.42408 -0.7247,1.87946 -1.818254,1.48937 -4.110666,1.95618 -6.596492,1.95618 z m -6.980877,-4.8574 c 0.320725,0.0482 0.639819,0.0954 0.957279,0.14363 2.05248,0.3093 4.049464,0.61126 5.780402,0.63982 -0.02775,-0.0482 -0.05386,-0.0971 -0.07916,-0.14689 -0.592485,-1.15315 -0.568819,-2.52011 0.06121,-3.65611 0.857716,-1.54569 1.904766,-3.57205 2.722494,-5.5927 l -0.583509,0.70021 c -0.619416,0.74428 -1.560373,1.15885 -2.533159,1.10499 -0.966256,-0.0514 -1.863962,-0.56392 -2.400136,-1.36941 l -0.528014,-0.79324 c -0.430898,2.73066 -1.373487,6.08072 -3.397403,8.9697 z"
     id="path42"
     style="stroke-width:0.816095" />
  <path
     d="m 78.1638,232.45854 c -3.811168,0 -7.477883,-0.36153 -9.493638,-1.16784 -0.729589,-0.29134 -1.658305,-0.43987 -2.76085,-0.43987 -0.01224,0 -0.0253,0 -0.03835,0 -1.428982,0 -2.769827,-0.55249 -3.775256,-1.55629 -0.995636,-0.99401 -1.544868,-2.31689 -1.544868,-3.72384 0,-2.91183 2.338928,-5.28177 5.214032,-5.2834 h 0.01387 c 2.369125,0 4.823939,0.3705 7.197143,0.72959 2.325875,0.35173 4.522802,0.68552 6.401454,0.63655 0.768762,-0.0212 1.484477,0.39662 1.849271,1.0748 0.363979,0.67899 0.315013,1.50487 -0.127311,2.13571 -0.105276,0.15017 -0.230955,0.395 -0.230955,0.70675 0,0.31583 0.123231,0.61289 0.346841,0.83567 0.235035,0.23505 0.55168,0.36398 0.891992,0.36398 0.01387,-0.003 0.02611,0 0.03917,0 1.624029,0 3.062805,0.24565 4.276338,0.73123 0.209736,0.0841 0.494554,0.16975 0.848739,0.25625 0.935245,0.22769 1.584041,1.07888 1.556293,2.04187 -0.02856,0.96218 -0.725508,1.77419 -1.672995,1.94721 -2.509492,0.45863 -5.800804,0.71163 -8.99092,0.71163 z m -12.254488,-5.68819 c 1.62403,0 3.062806,0.24565 4.276339,0.73123 1.276373,0.51087 4.148211,0.8365 7.41178,0.87649 -0.516589,-0.8161 -0.798141,-1.76114 -0.808751,-2.74943 -1.455097,-0.12976 -2.953451,-0.35582 -4.420791,-0.57779 -2.228756,-0.33623 -4.53096,-0.7043 -6.599761,-0.68308 -0.615336,0 -1.135189,0.55086 -1.135189,1.20293 0,0.31583 0.123231,0.61289 0.346841,0.83567 0.235035,0.23505 0.55168,0.36398 0.891992,0.36398 0.0098,-0.003 0.02448,0 0.03754,0 z"
     id="path44"
     style="stroke-width:0.816095" />
  <path
     d="m 154.87427,179.28667 c -24.70727,0 -51.52822,-5.36582 -69.745098,-17.27183 -12.4985,-8.16911 -19.51855,-18.8061 -20.301185,-30.76026 -2.078595,-31.775471 21.581638,-39.728319 31.850564,-41.673073 4.888409,-0.924636 9.850249,1.418374 12.355669,5.830185 4.24043,7.469718 23.15098,34.391058 88.44023,67.200528 2.06145,1.03644 3.25785,3.11259 3.12156,5.4205 -0.13548,2.28915 -1.55466,4.19473 -3.70426,4.97411 -11.27109,4.08374 -26.21215,6.27984 -42.01748,6.27984 z M 98.855892,93.457142 c -0.468438,0 -0.94259,0.04407 -1.417557,0.13384 -11.431045,2.164284 -30.337524,9.900868 -28.53885,37.396738 0.705106,10.77571 6.91641,20.06534 18.461707,27.61095 12.973468,8.47922 31.963978,14.16496 53.472168,16.00933 20.38198,1.74889 40.30694,-0.2334 54.66695,-5.43927 0.86669,-0.3142 1.00298,-1.06827 1.02175,-1.37757 0.0147,-0.24891 -0.006,-1.09357 -0.88056,-1.53344 -21.48861,-10.79857 -73.28943,-39.12197 -90.15648,-68.831906 -1.42163,-2.505412 -3.92703,-3.968671 -6.629128,-3.968672 z"
     id="path46"
     style="stroke-width:0.816095" />
  <path
     d="m 155.14604,179.25077 c -26.10036,0 -54.41558,-5.98851 -72.310095,-18.80773 -0.798957,-0.5729 -1.07643,-1.633 -0.659405,-2.52418 0.417025,-0.89036 1.410212,-1.35635 2.360964,-1.10907 27.978986,7.27466 64.709796,5.43927 87.337666,-4.36448 0.36072,-0.15669 0.62432,-0.40805 0.78182,-0.74918 0.24075,-0.51985 0.68879,-0.91403 1.23394,-1.08704 0.54433,-0.17301 1.13763,-0.10936 1.63463,0.17628 9.03989,5.20179 16.925,9.30267 21.94807,11.82685 2.06146,1.03644 3.25785,3.11259 3.12156,5.4205 -0.13547,2.28915 -1.55466,4.19473 -3.70426,4.97411 -11.32087,4.10169 -26.13707,6.24394 -41.74489,6.24394 z M 95.707398,163.29448 c 29.090512,14.08661 73.871282,15.26996 99.793732,5.87506 0.86669,-0.31419 1.00298,-1.06826 1.02175,-1.37756 0.0146,-0.24891 -0.006,-1.09357 -0.88056,-1.53344 -4.78151,-2.40259 -12.13126,-6.2211 -20.60396,-11.05075 -0.44722,0.40152 -0.96381,0.73204 -1.54079,0.98177 -20.19183,8.74853 -51.18222,11.37391 -77.790172,7.10492 z"
     id="path48"
     style="stroke-width:0.816095" />
</svg>
